<svg width="62" height="20" viewBox="0 0 62 20" fill="none" xmlns="http://www.w3.org/2000/svg">
<g clip-path="url(#clip0_769_1173)">
<path d="M16.4688 0.302734H17.2995L20.4415 2.27861H19.5654L16.4688 0.302734Z" fill="#FFA200"/>
<path d="M13.2212 19.6976H14.052L17.1939 17.7217H16.3178L13.2212 19.6976Z" fill="#FDE43B"/>
<path d="M10.9876 15.9584L12.9791 9.90918L14.7733 15.9584H19.146C19.146 15.9584 18.807 16.9032 18.5898 17.5087C18.1603 17.6094 17.9154 17.6529 17.4773 17.7063C17.0212 17.7619 16.303 17.7823 16.303 17.7823H3.97267C3.0456 17.7823 2.47389 17.7823 1.56225 17.4935C1.03421 17.3262 0.696972 17.0983 0.434298 16.7791C0.107631 16.3822 0.0791016 15.9584 0.0791016 15.9584H10.9876Z" fill="url(#paint0_linear_769_1173)"/>
<path d="M3.86452 3.47945C4.19614 3.19967 4.41257 3.07139 4.80706 2.88669C5.2085 2.69872 5.88867 2.53711 5.88867 2.53711L5.3633 4.10261L4.00358 9.19428L2.1494 15.9578H0.0791016C0.0791016 15.9578 0.0791115 14.6551 0.187068 14.1948C0.770348 11.7076 0.913312 11.4893 1.56225 9.08788C1.94096 7.68644 2.18033 6.89923 2.58204 5.53131C2.94661 4.28992 3.13867 4.09185 3.86452 3.47945Z" fill="url(#paint1_linear_769_1173)"/>
<path d="M18.6821 4.10259L17.0272 10.1214L14.8965 4.10259H5.34766L5.88846 2.53709C5.88846 2.53709 6.36646 2.43898 6.67648 2.4003C6.9827 2.36209 7.4645 2.33521 7.4645 2.33521L20.5056 2.27441C21.4326 2.27441 22.0043 2.27871 22.916 2.56749C23.444 2.73476 23.7813 2.96266 24.0439 3.28184C24.3706 3.67878 24.3684 4.10259 24.3684 4.10259H18.6821Z" fill="url(#paint2_linear_769_1173)"/>
<path d="M20.614 16.5507C20.2824 16.8304 20.0659 16.9587 19.6715 17.1434C19.27 17.3314 19.0241 17.4143 18.5898 17.5082C18.795 16.8909 19.1152 15.9275 19.1152 15.9275L20.4749 10.8358L22.3291 4.07227H24.3687C24.3687 4.07227 24.3653 4.99308 24.2914 5.57697C24.155 6.65567 22.303 13.6474 21.8965 14.4988C21.4899 15.3502 21.3398 15.9383 20.614 16.5507Z" fill="url(#paint3_linear_769_1173)"/>
<path d="M16.4687 0.302734L19.5738 2.28295L13.3018 2.3318L16.4687 0.302734Z" fill="url(#paint4_linear_769_1173)"/>
<path d="M13.2207 19.697L10.0566 17.668H16.3994L13.2207 19.697Z" fill="url(#paint5_linear_769_1173)"/>
<path d="M9.14676 4.10237H10.6169L7.4516 15.9576H5.98145L9.14676 4.10237Z" fill="url(#paint6_linear_769_1173)"/>
<path d="M3.47803 7.17285H8.79332V8.66235H3.47803V7.17285Z" fill="url(#paint7_linear_769_1173)"/>
<path d="M14.9427 15.9584L12.979 9.90918L14.1874 15.9584H14.9427Z" fill="#FFF348"/>
<path d="M19.0817 4.10237L17.0273 10.1212L18.3113 4.10237H19.0817Z" fill="#FFA200"/>
<path d="M23.9074 5.01409L23.9661 4.58748C24.0215 4.1848 23.9391 3.77509 23.7325 3.4257C23.483 3.00365 23.0722 2.70315 22.5962 2.59446L21.2119 2.27832L21.6931 2.27832C21.815 2.27833 21.9366 2.29145 22.0557 2.31746L23.042 2.53287C23.545 2.64274 23.9875 2.9414 24.2794 3.36807C24.5117 3.70761 24.6361 4.11014 24.6361 4.52237V4.81753C24.6361 5.07841 24.6021 5.33816 24.535 5.59016L22.0489 14.926C21.8465 15.6861 21.3871 16.3515 20.7499 16.8077C20.426 17.0395 20.0639 17.2118 19.6803 17.3164L19.4114 17.3898C18.7904 17.5592 18.1545 17.667 17.5127 17.7115L17.1636 17.7357L19.2901 16.967C19.5531 16.8719 19.8027 16.7429 20.0326 16.583C20.6617 16.1456 21.1157 15.4975 21.3136 14.7543L23.9074 5.01409Z" fill="#FFF348"/>
<path d="M2.48089 15.9576H1.74072L3.72337 8.66211H4.39928L2.48089 15.9576Z" fill="url(#paint8_linear_769_1173)"/>
<path d="M7.8886 15.9576H7.14844L10.2904 4.10237H10.9852L7.8886 15.9576Z" fill="#FFF349"/>
<path d="M7.8886 15.9576H7.14844L10.2904 4.10237H10.9852L7.8886 15.9576Z" fill="url(#paint9_linear_769_1173)"/>
<path d="M4.8224 7.17257H4.07568L4.90177 4.10237H5.57768L4.8224 7.17257Z" fill="#FFAA06"/>
<path d="M28.7735 4.15804C28.7735 4.15804 27.6084 4.33964 27.2747 4.47175C26.3996 4.82397 25.7432 5.5945 25.3767 6.70074C25.2673 7.03096 23.8561 12.32 23.6701 13.107C23.4732 13.9326 23.4732 14.56 23.6701 14.9728C23.8999 15.4406 24.2773 15.7048 24.9555 15.8644C25.2509 15.9359 25.8143 15.9579 28.1882 15.9745C31.8748 16.0075 32.4709 15.9469 33.4008 15.4571C34.0518 15.1104 34.637 14.3344 34.9597 13.3712C35.124 12.8924 36.6062 7.30065 36.7264 6.71725C37.0219 5.28629 36.6337 4.55981 35.3974 4.22957C35.0965 4.15254 34.6479 4.136 32.0171 4.1305C30.3489 4.125 28.7735 4.15804 28.7735 4.15804ZM32.9195 7.33366C32.8431 7.65837 31.5739 12.3971 31.5193 12.5622L31.4591 12.7438H29.4408C28.3304 12.7438 27.4224 12.7438 27.4224 12.7438C27.4224 12.7108 28.6805 7.97758 28.8227 7.47124L28.9047 7.18505H30.9341H32.9579L32.9195 7.33366Z" fill="white"/>
<path d="M38.6337 4.10254C38.5023 4.49881 36.2268 13.2387 36.1721 13.5524C35.9697 14.6751 36.2105 15.3521 36.9159 15.6603C37.5999 15.952 37.7256 15.963 41.1771 15.963C44.0596 15.963 44.426 15.952 44.8692 15.8639C46.1873 15.5942 46.893 14.9943 47.4181 13.7065C47.5383 13.4148 48.1126 11.3784 48.8292 8.68711C49.4966 6.19946 50.038 4.11905 50.038 4.10254C50.038 4.10254 49.2066 4.10254 48.1894 4.10254H46.3405L45.1973 8.3679C44.5683 10.7125 44.0157 12.7103 43.994 12.7433H42.0249H41.0267H40.0282L41.1826 8.47797C41.8116 6.1444 42.3258 4.14105 42.3258 4.10254C42.3258 4.10254 41.9209 4.10254 40.4932 4.10254C39.0711 4.10254 38.6337 4.10254 38.6337 4.10254Z" fill="white"/>
<path d="M50.9807 4.10254C50.9698 4.14105 50.7949 4.85653 50.5979 5.61606C50.4009 6.37005 50.1768 7.13508 50.1602 7.18459C50.1602 7.18459 50.2916 7.18459 51.9927 7.18459H53.8033L53.7649 7.30567C53.7429 7.37723 53.2232 9.31452 52.6109 11.6151C51.9982 13.9156 51.4073 15.941 51.3909 15.9905H53.3H55.1652C55.1815 15.9245 55.7395 13.8221 56.363 11.4775L57.5089 7.1956H59.3113H61.1273C61.1436 7.14608 61.7234 4.85653 61.9203 4.10254C61.9203 4.10254 60.8264 4.10254 56.4724 4.10254C52.1459 4.10254 50.9807 4.10254 50.9807 4.10254Z" fill="white"/>
</g>
<defs>
<linearGradient id="paint0_linear_769_1173" x1="10.5472" y1="22.9043" x2="14.3097" y2="1.63045" gradientUnits="userSpaceOnUse">
<stop offset="0.380208" stop-color="#FFA200"/>
<stop offset="1" stop-color="#FDE43B"/>
</linearGradient>
<linearGradient id="paint1_linear_769_1173" x1="10.5472" y1="22.9038" x2="14.3097" y2="1.6299" gradientUnits="userSpaceOnUse">
<stop offset="0.380208" stop-color="#FFA200"/>
<stop offset="1" stop-color="#FDE43B"/>
</linearGradient>
<linearGradient id="paint2_linear_769_1173" x1="10.5469" y1="22.9038" x2="14.3095" y2="1.62988" gradientUnits="userSpaceOnUse">
<stop offset="0.380208" stop-color="#FFA200"/>
<stop offset="1" stop-color="#FDE43B"/>
</linearGradient>
<linearGradient id="paint3_linear_769_1173" x1="10.5472" y1="22.9038" x2="14.3098" y2="1.62996" gradientUnits="userSpaceOnUse">
<stop offset="0.380208" stop-color="#FFA200"/>
<stop offset="1" stop-color="#FDE43B"/>
</linearGradient>
<linearGradient id="paint4_linear_769_1173" x1="10.5474" y1="22.9037" x2="14.3099" y2="1.62979" gradientUnits="userSpaceOnUse">
<stop offset="0.380208" stop-color="#FFA200"/>
<stop offset="1" stop-color="#FDE43B"/>
</linearGradient>
<linearGradient id="paint5_linear_769_1173" x1="10.5471" y1="22.904" x2="14.3096" y2="1.63015" gradientUnits="userSpaceOnUse">
<stop offset="0.380208" stop-color="#FFA200"/>
<stop offset="1" stop-color="#FDE43B"/>
</linearGradient>
<linearGradient id="paint6_linear_769_1173" x1="10.5472" y1="22.9035" x2="14.3098" y2="1.62967" gradientUnits="userSpaceOnUse">
<stop offset="0.380208" stop-color="#FFA200"/>
<stop offset="1" stop-color="#FDE43B"/>
</linearGradient>
<linearGradient id="paint7_linear_769_1173" x1="10.5469" y1="22.9038" x2="14.3095" y2="1.62995" gradientUnits="userSpaceOnUse">
<stop offset="0.380208" stop-color="#FFA200"/>
<stop offset="1" stop-color="#FDE43B"/>
</linearGradient>
<linearGradient id="paint8_linear_769_1173" x1="3.07" y1="8.66211" x2="1.72474" y2="15.9547" gradientUnits="userSpaceOnUse">
<stop stop-color="#FFAA06"/>
<stop offset="1" stop-color="#FFF348"/>
</linearGradient>
<linearGradient id="paint9_linear_769_1173" x1="9.61062" y1="8.66207" x2="5.37819" y2="23.7868" gradientUnits="userSpaceOnUse">
<stop stop-color="#FFAB00"/>
<stop offset="1" stop-color="#FFE600" stop-opacity="0"/>
</linearGradient>
<clipPath id="clip0_769_1173">
<rect width="62" height="20" fill="white"/>
</clipPath>
</defs>
</svg>
